<mxfile host="app.diagrams.net" modified="2022-12-28T17:02:19.182Z" agent="5.0 (Windows NT 10.0; Win64; x64) AppleWebKit/537.36 (KHTML, like Gecko) Chrome/108.0.0.0 Safari/537.36 Edg/108.0.1462.54" etag="gWjrQtWTfv1zy0isoIc9" version="20.7.4" type="github">
  <diagram id="C5RBs43oDa-KdzZeNtuy" name="Page-1">
    <mxGraphModel dx="833" dy="490" grid="1" gridSize="10" guides="1" tooltips="1" connect="1" arrows="1" fold="1" page="1" pageScale="1" pageWidth="827" pageHeight="1169" math="0" shadow="0">
      <root>
        <mxCell id="WIyWlLk6GJQsqaUBKTNV-0" />
        <mxCell id="WIyWlLk6GJQsqaUBKTNV-1" parent="WIyWlLk6GJQsqaUBKTNV-0" />
        <mxCell id="NDnfBXwf6tlhHxc3BCBP-61" value="" style="rounded=0;html=1;jettySize=auto;orthogonalLoop=1;fontSize=11;endArrow=block;endFill=0;endSize=8;strokeWidth=1;shadow=0;labelBackgroundColor=none;edgeStyle=orthogonalEdgeStyle;" edge="1" parent="WIyWlLk6GJQsqaUBKTNV-1" source="NDnfBXwf6tlhHxc3BCBP-62" target="NDnfBXwf6tlhHxc3BCBP-65">
          <mxGeometry relative="1" as="geometry" />
        </mxCell>
        <mxCell id="NDnfBXwf6tlhHxc3BCBP-62" value="BMI" style="rounded=1;whiteSpace=wrap;html=1;fontSize=12;glass=0;strokeWidth=1;shadow=0;" vertex="1" parent="WIyWlLk6GJQsqaUBKTNV-1">
          <mxGeometry x="160" y="80" width="120" height="40" as="geometry" />
        </mxCell>
        <mxCell id="NDnfBXwf6tlhHxc3BCBP-63" style="edgeStyle=orthogonalEdgeStyle;rounded=0;orthogonalLoop=1;jettySize=auto;html=1;exitX=1;exitY=0.5;exitDx=0;exitDy=0;entryX=0;entryY=0.5;entryDx=0;entryDy=0;" edge="1" parent="WIyWlLk6GJQsqaUBKTNV-1" source="NDnfBXwf6tlhHxc3BCBP-65" target="NDnfBXwf6tlhHxc3BCBP-66">
          <mxGeometry relative="1" as="geometry" />
        </mxCell>
        <mxCell id="NDnfBXwf6tlhHxc3BCBP-64" style="edgeStyle=orthogonalEdgeStyle;rounded=0;orthogonalLoop=1;jettySize=auto;html=1;exitX=0.5;exitY=1;exitDx=0;exitDy=0;entryX=0.5;entryY=0;entryDx=0;entryDy=0;" edge="1" parent="WIyWlLk6GJQsqaUBKTNV-1" source="NDnfBXwf6tlhHxc3BCBP-65" target="NDnfBXwf6tlhHxc3BCBP-69">
          <mxGeometry relative="1" as="geometry" />
        </mxCell>
        <mxCell id="NDnfBXwf6tlhHxc3BCBP-65" value="Width&amp;lt;18.5" style="rhombus;whiteSpace=wrap;html=1;shadow=0;fontFamily=Helvetica;fontSize=12;align=center;strokeWidth=1;spacing=6;spacingTop=-4;" vertex="1" parent="WIyWlLk6GJQsqaUBKTNV-1">
          <mxGeometry x="170" y="170" width="100" height="80" as="geometry" />
        </mxCell>
        <mxCell id="NDnfBXwf6tlhHxc3BCBP-66" value="You are underwidth" style="ellipse;whiteSpace=wrap;html=1;rounded=1;glass=0;strokeWidth=1;shadow=0;" vertex="1" parent="WIyWlLk6GJQsqaUBKTNV-1">
          <mxGeometry x="390" y="170" width="80" height="80" as="geometry" />
        </mxCell>
        <mxCell id="NDnfBXwf6tlhHxc3BCBP-67" style="edgeStyle=orthogonalEdgeStyle;rounded=0;orthogonalLoop=1;jettySize=auto;html=1;exitX=1;exitY=0.5;exitDx=0;exitDy=0;" edge="1" parent="WIyWlLk6GJQsqaUBKTNV-1" source="NDnfBXwf6tlhHxc3BCBP-69">
          <mxGeometry relative="1" as="geometry">
            <mxPoint x="390" y="330" as="targetPoint" />
          </mxGeometry>
        </mxCell>
        <mxCell id="NDnfBXwf6tlhHxc3BCBP-68" style="edgeStyle=orthogonalEdgeStyle;rounded=0;orthogonalLoop=1;jettySize=auto;html=1;exitX=0.5;exitY=1;exitDx=0;exitDy=0;" edge="1" parent="WIyWlLk6GJQsqaUBKTNV-1" source="NDnfBXwf6tlhHxc3BCBP-69">
          <mxGeometry relative="1" as="geometry">
            <mxPoint x="220" y="420" as="targetPoint" />
          </mxGeometry>
        </mxCell>
        <mxCell id="NDnfBXwf6tlhHxc3BCBP-69" value="Width&amp;gt;18.5 and &amp;lt;25" style="rhombus;whiteSpace=wrap;html=1;shadow=0;fontFamily=Helvetica;fontSize=12;align=center;strokeWidth=1;spacing=6;spacingTop=-4;" vertex="1" parent="WIyWlLk6GJQsqaUBKTNV-1">
          <mxGeometry x="160" y="280" width="120" height="100" as="geometry" />
        </mxCell>
        <mxCell id="NDnfBXwf6tlhHxc3BCBP-70" value="Yes" style="text;html=1;align=center;verticalAlign=middle;resizable=0;points=[];autosize=1;strokeColor=none;fillColor=none;" vertex="1" parent="WIyWlLk6GJQsqaUBKTNV-1">
          <mxGeometry x="300" y="185" width="40" height="30" as="geometry" />
        </mxCell>
        <mxCell id="NDnfBXwf6tlhHxc3BCBP-71" value="No" style="text;html=1;align=center;verticalAlign=middle;resizable=0;points=[];autosize=1;strokeColor=none;fillColor=none;" vertex="1" parent="WIyWlLk6GJQsqaUBKTNV-1">
          <mxGeometry x="220" y="250" width="40" height="30" as="geometry" />
        </mxCell>
        <mxCell id="NDnfBXwf6tlhHxc3BCBP-72" value="Your width is normal" style="ellipse;whiteSpace=wrap;html=1;rounded=1;glass=0;strokeWidth=1;shadow=0;" vertex="1" parent="WIyWlLk6GJQsqaUBKTNV-1">
          <mxGeometry x="390" y="290" width="80" height="80" as="geometry" />
        </mxCell>
        <mxCell id="NDnfBXwf6tlhHxc3BCBP-73" style="edgeStyle=orthogonalEdgeStyle;rounded=0;orthogonalLoop=1;jettySize=auto;html=1;exitX=1;exitY=0.5;exitDx=0;exitDy=0;entryX=0;entryY=0.5;entryDx=0;entryDy=0;" edge="1" parent="WIyWlLk6GJQsqaUBKTNV-1" source="NDnfBXwf6tlhHxc3BCBP-75" target="NDnfBXwf6tlhHxc3BCBP-76">
          <mxGeometry relative="1" as="geometry">
            <mxPoint x="390" y="480" as="targetPoint" />
          </mxGeometry>
        </mxCell>
        <mxCell id="NDnfBXwf6tlhHxc3BCBP-74" value="" style="edgeStyle=orthogonalEdgeStyle;rounded=0;orthogonalLoop=1;jettySize=auto;html=1;" edge="1" parent="WIyWlLk6GJQsqaUBKTNV-1" source="NDnfBXwf6tlhHxc3BCBP-75" target="NDnfBXwf6tlhHxc3BCBP-82">
          <mxGeometry relative="1" as="geometry" />
        </mxCell>
        <mxCell id="NDnfBXwf6tlhHxc3BCBP-75" value="Width&amp;gt;25 and &amp;lt; 30" style="rhombus;whiteSpace=wrap;html=1;shadow=0;fontFamily=Helvetica;fontSize=12;align=center;strokeWidth=1;spacing=6;spacingTop=-4;" vertex="1" parent="WIyWlLk6GJQsqaUBKTNV-1">
          <mxGeometry x="160" y="420" width="120" height="100" as="geometry" />
        </mxCell>
        <mxCell id="NDnfBXwf6tlhHxc3BCBP-76" value="You are slightly obese" style="ellipse;whiteSpace=wrap;html=1;rounded=1;glass=0;strokeWidth=1;shadow=0;" vertex="1" parent="WIyWlLk6GJQsqaUBKTNV-1">
          <mxGeometry x="390" y="430" width="80" height="80" as="geometry" />
        </mxCell>
        <mxCell id="NDnfBXwf6tlhHxc3BCBP-77" value="Yes" style="text;html=1;align=center;verticalAlign=middle;resizable=0;points=[];autosize=1;strokeColor=none;fillColor=none;" vertex="1" parent="WIyWlLk6GJQsqaUBKTNV-1">
          <mxGeometry x="310" y="300" width="40" height="30" as="geometry" />
        </mxCell>
        <mxCell id="NDnfBXwf6tlhHxc3BCBP-78" value="No" style="text;html=1;align=center;verticalAlign=middle;resizable=0;points=[];autosize=1;strokeColor=none;fillColor=none;" vertex="1" parent="WIyWlLk6GJQsqaUBKTNV-1">
          <mxGeometry x="220" y="385" width="40" height="30" as="geometry" />
        </mxCell>
        <mxCell id="NDnfBXwf6tlhHxc3BCBP-79" value="Yes" style="text;html=1;align=center;verticalAlign=middle;resizable=0;points=[];autosize=1;strokeColor=none;fillColor=none;" vertex="1" parent="WIyWlLk6GJQsqaUBKTNV-1">
          <mxGeometry x="320" y="445" width="40" height="30" as="geometry" />
        </mxCell>
        <mxCell id="NDnfBXwf6tlhHxc3BCBP-80" value="" style="edgeStyle=orthogonalEdgeStyle;rounded=0;orthogonalLoop=1;jettySize=auto;html=1;" edge="1" parent="WIyWlLk6GJQsqaUBKTNV-1" source="NDnfBXwf6tlhHxc3BCBP-82" target="NDnfBXwf6tlhHxc3BCBP-83">
          <mxGeometry relative="1" as="geometry" />
        </mxCell>
        <mxCell id="NDnfBXwf6tlhHxc3BCBP-81" value="" style="edgeStyle=orthogonalEdgeStyle;rounded=0;orthogonalLoop=1;jettySize=auto;html=1;" edge="1" parent="WIyWlLk6GJQsqaUBKTNV-1" source="NDnfBXwf6tlhHxc3BCBP-82" target="NDnfBXwf6tlhHxc3BCBP-87">
          <mxGeometry relative="1" as="geometry" />
        </mxCell>
        <mxCell id="NDnfBXwf6tlhHxc3BCBP-82" value="Width&amp;gt;30 and &amp;lt; 35" style="rhombus;whiteSpace=wrap;html=1;shadow=0;fontFamily=Helvetica;fontSize=12;align=center;strokeWidth=1;spacing=6;spacingTop=-4;" vertex="1" parent="WIyWlLk6GJQsqaUBKTNV-1">
          <mxGeometry x="160" y="600" width="120" height="100" as="geometry" />
        </mxCell>
        <mxCell id="NDnfBXwf6tlhHxc3BCBP-83" value="You are obese" style="ellipse;whiteSpace=wrap;html=1;shadow=0;strokeWidth=1;spacing=6;spacingTop=-4;" vertex="1" parent="WIyWlLk6GJQsqaUBKTNV-1">
          <mxGeometry x="380" y="610" width="80" height="80" as="geometry" />
        </mxCell>
        <mxCell id="NDnfBXwf6tlhHxc3BCBP-84" value="No" style="text;html=1;align=center;verticalAlign=middle;resizable=0;points=[];autosize=1;strokeColor=none;fillColor=none;" vertex="1" parent="WIyWlLk6GJQsqaUBKTNV-1">
          <mxGeometry x="230" y="535" width="40" height="30" as="geometry" />
        </mxCell>
        <mxCell id="NDnfBXwf6tlhHxc3BCBP-85" value="" style="edgeStyle=orthogonalEdgeStyle;rounded=0;orthogonalLoop=1;jettySize=auto;html=1;" edge="1" parent="WIyWlLk6GJQsqaUBKTNV-1" source="NDnfBXwf6tlhHxc3BCBP-87" target="NDnfBXwf6tlhHxc3BCBP-88">
          <mxGeometry relative="1" as="geometry" />
        </mxCell>
        <mxCell id="NDnfBXwf6tlhHxc3BCBP-86" value="" style="edgeStyle=orthogonalEdgeStyle;rounded=0;orthogonalLoop=1;jettySize=auto;html=1;" edge="1" parent="WIyWlLk6GJQsqaUBKTNV-1" source="NDnfBXwf6tlhHxc3BCBP-87" target="NDnfBXwf6tlhHxc3BCBP-92">
          <mxGeometry relative="1" as="geometry" />
        </mxCell>
        <mxCell id="NDnfBXwf6tlhHxc3BCBP-87" value="Width&amp;gt;35" style="rhombus;whiteSpace=wrap;html=1;shadow=0;fontFamily=Helvetica;fontSize=12;align=center;strokeWidth=1;spacing=6;spacingTop=-4;" vertex="1" parent="WIyWlLk6GJQsqaUBKTNV-1">
          <mxGeometry x="160" y="780" width="120" height="100" as="geometry" />
        </mxCell>
        <mxCell id="NDnfBXwf6tlhHxc3BCBP-88" value="You are severely obese" style="ellipse;whiteSpace=wrap;html=1;shadow=0;strokeWidth=1;spacing=6;spacingTop=-4;" vertex="1" parent="WIyWlLk6GJQsqaUBKTNV-1">
          <mxGeometry x="380" y="790" width="80" height="80" as="geometry" />
        </mxCell>
        <mxCell id="NDnfBXwf6tlhHxc3BCBP-89" value="Yes" style="text;html=1;align=center;verticalAlign=middle;resizable=0;points=[];autosize=1;strokeColor=none;fillColor=none;" vertex="1" parent="WIyWlLk6GJQsqaUBKTNV-1">
          <mxGeometry x="300" y="615" width="40" height="30" as="geometry" />
        </mxCell>
        <mxCell id="NDnfBXwf6tlhHxc3BCBP-90" value="No" style="text;html=1;align=center;verticalAlign=middle;resizable=0;points=[];autosize=1;strokeColor=none;fillColor=none;" vertex="1" parent="WIyWlLk6GJQsqaUBKTNV-1">
          <mxGeometry x="220" y="735" width="40" height="30" as="geometry" />
        </mxCell>
        <mxCell id="NDnfBXwf6tlhHxc3BCBP-91" value="Yes" style="text;html=1;align=center;verticalAlign=middle;resizable=0;points=[];autosize=1;strokeColor=none;fillColor=none;" vertex="1" parent="WIyWlLk6GJQsqaUBKTNV-1">
          <mxGeometry x="300" y="795" width="40" height="30" as="geometry" />
        </mxCell>
        <mxCell id="NDnfBXwf6tlhHxc3BCBP-92" value="Invalid input" style="whiteSpace=wrap;html=1;shadow=0;strokeWidth=1;spacing=6;spacingTop=-4;" vertex="1" parent="WIyWlLk6GJQsqaUBKTNV-1">
          <mxGeometry x="160" y="980" width="120" height="60" as="geometry" />
        </mxCell>
        <mxCell id="NDnfBXwf6tlhHxc3BCBP-93" value="No" style="text;html=1;align=center;verticalAlign=middle;resizable=0;points=[];autosize=1;strokeColor=none;fillColor=none;" vertex="1" parent="WIyWlLk6GJQsqaUBKTNV-1">
          <mxGeometry x="220" y="895" width="40" height="30" as="geometry" />
        </mxCell>
      </root>
    </mxGraphModel>
  </diagram>
</mxfile>
